<svg width="63" height="60" viewBox="0 0 63 60" fill="none" xmlns="http://www.w3.org/2000/svg">
<path d="M60.182 7.5H14.2892L13.3849 2.29418C13.1538 0.963984 12.0778 0 10.8239 0H1.55635C0.836875 0 0.25354 0.629648 0.25354 1.40625V2.34375C0.25354 3.12035 0.836875 3.75 1.55635 3.75H10.1028L17.6946 47.4546C16.5718 48.7868 15.8873 50.557 15.8873 52.5C15.8873 56.6421 18.9982 60 22.8357 60C26.6731 60 29.784 56.6421 29.784 52.5C29.7854 51.1832 29.4639 49.8894 28.8522 48.75H44.6126C44.0009 49.8894 43.6795 51.1832 43.6808 52.5C43.6808 56.6421 46.7917 60 50.6292 60C54.4666 60 57.5775 56.6421 57.5775 52.5C57.5775 50.3914 56.7703 48.4875 55.4726 47.1248C55.1913 45.9247 54.1857 45 52.9446 45H20.8033L19.5005 37.5H55.4778C56.712 37.5 57.7769 36.5653 58.0287 35.2611L62.7331 10.8861C63.0701 9.13957 61.8349 7.5 60.182 7.5ZM50.629 48.75C52.5447 48.75 54.1032 50.4322 54.1032 52.5C54.1032 54.5678 52.5447 56.25 50.629 56.25C48.7134 56.25 47.1549 54.5678 47.1549 52.5C47.1549 50.4322 48.7134 48.75 50.629 48.75ZM22.8357 48.75C24.7513 48.75 26.3098 50.4322 26.3098 52.5C26.3098 54.5678 24.7513 56.25 22.8357 56.25C20.92 56.25 19.3615 54.5678 19.3615 52.5C19.3615 50.4322 20.92 48.75 22.8357 48.75ZM54.7716 33.75H18.8491L14.9406 11.25H59.1143L54.7716 33.75ZM29.784 22.9688V22.0312C29.784 21.2546 30.3673 20.625 31.0868 20.625H34.9953V16.4062C34.9953 15.6296 35.5786 15 36.2981 15H37.1666C37.8861 15 38.4694 15.6296 38.4694 16.4062V20.625H42.3779C43.0974 20.625 43.6807 21.2546 43.6807 22.0312V22.9688C43.6807 23.7454 43.0974 24.375 42.3779 24.375H38.4694V28.5938C38.4694 29.3704 37.8861 30 37.1666 30H36.2981C35.5786 30 34.9953 29.3704 34.9953 28.5938V24.375H31.0868C30.3673 24.375 29.784 23.7454 29.784 22.9688Z" fill="white"/>
</svg>
