<svg width="20" height="24" viewBox="0 0 20 24" fill="none" xmlns="http://www.w3.org/2000/svg">
<path d="M17.2409 9.57694C17.5726 9.57694 17.8901 9.38719 18.1249 9.0487L19.8167 6.60849C20.0609 6.25648 20.0609 5.68587 19.8167 5.3334L18.1249 2.8932C17.8905 2.55516 17.5726 2.3654 17.2409 2.3654H10.6249V1.28367C10.6249 1.08445 10.4851 0.923096 10.3124 0.923096H9.68741C9.51475 0.923096 9.37491 1.08445 9.37491 1.28367V2.3654H2.1874C1.66983 2.3654 1.2499 2.97072 1.2499 3.71757V8.22478C1.2499 8.97162 1.66983 9.57694 2.1874 9.57694H9.37491V11.0192H2.75889C2.42725 11.0192 2.10928 11.209 1.8749 11.547L0.183106 13.9877C-0.0610352 14.3397 -0.0610352 14.9103 0.183106 15.2628L1.8749 17.7025C2.10928 18.0406 2.42725 18.2308 2.75889 18.2308H9.37491V23.6394C9.37491 23.8387 9.51475 24 9.68741 24H10.3124C10.4851 24 10.6249 23.8387 10.6249 23.6394V18.2308H17.8124C18.33 18.2308 18.7499 17.6255 18.7499 16.8786V12.3714C18.7499 11.6246 18.33 11.0192 17.8124 11.0192H10.6249V9.57694H17.2409ZM17.4901 16.7885H2.8417L1.3417 14.625L2.84365 12.4616H17.4995L17.4901 16.7885ZM2.50967 3.80771H17.1581L18.6581 5.97117L17.1562 8.13463H2.50029L2.50967 3.80771Z" fill="white"/>
</svg>
